<?xml version="1.0" encoding="UTF-8" standalone="no"?>
<!DOCTYPE svg PUBLIC "-//W3C//DTD SVG 1.0//EN" "http://www.w3.org/TR/2001/PR-SVG-20010719/DTD/svg10.dtd">
<svg width="11cm" height="15cm" viewBox="21 18 201 284" xmlns="http://www.w3.org/2000/svg" xmlns:xlink="http://www.w3.org/1999/xlink">
  <g>
    <rect style="fill: #ffffff" x="101" y="141" width="40" height="160"/>
    <rect style="fill: none; fill-opacity:0; stroke-width: 2; stroke: #000000" x="101" y="141" width="40" height="160"/>
  </g>
  <g>
    <rect style="fill: #ffffff" x="101" y="21" width="40" height="120"/>
    <rect style="fill: none; fill-opacity:0; stroke-width: 2; stroke: #000000" x="101" y="21" width="40" height="120"/>
  </g>
  <g>
    <polygon style="fill: #ffffff" points="121,21 123.857,26.7143 118.143,26.7143 "/>
    <polygon style="fill: none; fill-opacity:0; stroke-width: 2; stroke: #000000" points="121,21 123.857,26.7143 118.143,26.7143 "/>
    <polygon style="fill: none; fill-opacity:0; stroke-width: 2; stroke: #000000" points="121,21 123.857,26.7143 118.143,26.7143 "/>
    <ellipse style="fill: #ffffff" cx="121" cy="41" rx="11.4286" ry="11.4286"/>
    <ellipse style="fill: none; fill-opacity:0; stroke-width: 2; stroke: #000000" cx="121" cy="41" rx="11.4286" ry="11.4286"/>
    <ellipse style="fill: none; fill-opacity:0; stroke-width: 2; stroke: #000000" cx="121" cy="41" rx="11.4286" ry="11.4286"/>
    <polygon style="fill: #ffffff" points="121,61 123.857,55.2857 118.143,55.2857 "/>
    <polygon style="fill: none; fill-opacity:0; stroke-width: 2; stroke: #000000" points="121,61 123.857,55.2857 118.143,55.2857 "/>
    <polygon style="fill: none; fill-opacity:0; stroke-width: 2; stroke: #000000" points="121,61 123.857,55.2857 118.143,55.2857 "/>
    <polygon style="fill: #ffffff" points="101,41 106.714,43.8571 106.714,38.1429 "/>
    <polygon style="fill: none; fill-opacity:0; stroke-width: 2; stroke: #000000" points="101,41 106.714,43.8571 106.714,38.1429 "/>
    <polygon style="fill: none; fill-opacity:0; stroke-width: 2; stroke: #000000" points="101,41 106.714,43.8571 106.714,38.1429 "/>
    <polygon style="fill: #ffffff" points="141,41 135.286,43.8571 135.286,38.1429 "/>
    <polygon style="fill: none; fill-opacity:0; stroke-width: 2; stroke: #000000" points="141,41 135.286,43.8571 135.286,38.1429 "/>
    <polygon style="fill: none; fill-opacity:0; stroke-width: 2; stroke: #000000" points="141,41 135.286,43.8571 135.286,38.1429 "/>
    <polygon style="fill: #ffffff" points="112.429,29.5714 109.571,32.4286 106.714,26.7143 "/>
    <polygon style="fill: none; fill-opacity:0; stroke-width: 2; stroke: #000000" points="112.429,29.5714 109.571,32.4286 106.714,26.7143 "/>
    <polygon style="fill: none; fill-opacity:0; stroke-width: 2; stroke: #000000" points="112.429,29.5714 109.571,32.4286 106.714,26.7143 "/>
    <polygon style="fill: #ffffff" points="132.429,49.5714 129.571,52.4286 135.286,55.2857 "/>
    <polygon style="fill: none; fill-opacity:0; stroke-width: 2; stroke: #000000" points="132.429,49.5714 129.571,52.4286 135.286,55.2857 "/>
    <polygon style="fill: none; fill-opacity:0; stroke-width: 2; stroke: #000000" points="132.429,49.5714 129.571,52.4286 135.286,55.2857 "/>
    <polygon style="fill: #ffffff" points="132.429,32.4286 129.571,29.5714 135.286,26.7143 "/>
    <polygon style="fill: none; fill-opacity:0; stroke-width: 2; stroke: #000000" points="132.429,32.4286 129.571,29.5714 135.286,26.7143 "/>
    <polygon style="fill: none; fill-opacity:0; stroke-width: 2; stroke: #000000" points="132.429,32.4286 129.571,29.5714 135.286,26.7143 "/>
    <polygon style="fill: #ffffff" points="112.429,52.4286 109.571,49.5714 106.714,55.2857 "/>
    <polygon style="fill: none; fill-opacity:0; stroke-width: 2; stroke: #000000" points="112.429,52.4286 109.571,49.5714 106.714,55.2857 "/>
    <polygon style="fill: none; fill-opacity:0; stroke-width: 2; stroke: #000000" points="112.429,52.4286 109.571,49.5714 106.714,55.2857 "/>
  </g>
  <ellipse style="fill: #000000" cx="121" cy="280" rx="10" ry="10"/>
  <g>
    <rect style="fill: #ffffff" x="101" y="221" width="40" height="40"/>
    <rect style="fill: none; fill-opacity:0; stroke-width: 2; stroke: #000000" x="101" y="221" width="40" height="40"/>
  </g>
  <g>
    <rect style="fill: #ffffff" x="101" y="181" width="40" height="40"/>
    <rect style="fill: none; fill-opacity:0; stroke-width: 2; stroke: #000000" x="101" y="181" width="40" height="40"/>
  </g>
  <g>
    <rect style="fill: #ffffff" x="101" y="61" width="40" height="40"/>
    <rect style="fill: none; fill-opacity:0; stroke-width: 2; stroke: #000000" x="101" y="61" width="40" height="40"/>
  </g>
  <g>
    <rect style="fill: #ffffff" x="22" y="141" width="198.9" height="40"/>
    <rect style="fill: none; fill-opacity:0; stroke-width: 2; stroke: #000000" x="22" y="141" width="198.9" height="40"/>
  </g>
  <g>
    <ellipse style="fill: #ffffff" cx="201" cy="160" rx="15" ry="15"/>
    <ellipse style="fill: none; fill-opacity:0; stroke-width: 2; stroke: #000000" cx="201" cy="160" rx="15" ry="15"/>
    <ellipse style="fill: #000000" cx="201" cy="160" rx="10" ry="10"/>
  </g>
  <g>
    <rect style="fill: #ffffff" x="141" y="141" width="40" height="40"/>
    <rect style="fill: none; fill-opacity:0; stroke-width: 2; stroke: #000000" x="141" y="141" width="40" height="40"/>
  </g>
  <g>
    <rect style="fill: #ffffff" x="101" y="141" width="40" height="40"/>
    <rect style="fill: none; fill-opacity:0; stroke-width: 2; stroke: #000000" x="101" y="141" width="40" height="40"/>
  </g>
  <g>
    <rect style="fill: #ffffff" x="61" y="141" width="40" height="40"/>
    <rect style="fill: none; fill-opacity:0; stroke-width: 2; stroke: #000000" x="61" y="141" width="40" height="40"/>
  </g>
</svg>
