<?xml version="1.0" encoding="UTF-8" standalone="no"?>
<!DOCTYPE svg PUBLIC "-//W3C//DTD SVG 1.0//EN" "http://www.w3.org/TR/2001/PR-SVG-20010719/DTD/svg10.dtd">
<svg width="13cm" height="13cm" viewBox="19 28 247 247" xmlns="http://www.w3.org/2000/svg" xmlns:xlink="http://www.w3.org/1999/xlink">
  <g>
    <polygon style="fill: #ffffff" points="142.943,30.6361 160.201,65.1523 125.685,65.1523 "/>
    <polygon style="fill: none; fill-opacity:0; stroke-width: 2; stroke: #000000" points="142.943,30.6361 160.201,65.1523 125.685,65.1523 "/>
    <polygon style="fill: none; fill-opacity:0; stroke-width: 2; stroke: #000000" points="142.943,30.6361 160.201,65.1523 125.685,65.1523 "/>
    <ellipse style="fill: #ffffff" cx="142.943" cy="151.443" rx="69.0326" ry="69.0326"/>
    <ellipse style="fill: none; fill-opacity:0; stroke-width: 2; stroke: #000000" cx="142.943" cy="151.443" rx="69.0326" ry="69.0326"/>
    <ellipse style="fill: none; fill-opacity:0; stroke-width: 2; stroke: #000000" cx="142.943" cy="151.443" rx="69.0326" ry="69.0326"/>
    <polygon style="fill: #ffffff" points="142.943,272.25 160.201,237.734 125.685,237.734 "/>
    <polygon style="fill: none; fill-opacity:0; stroke-width: 2; stroke: #000000" points="142.943,272.25 160.201,237.734 125.685,237.734 "/>
    <polygon style="fill: none; fill-opacity:0; stroke-width: 2; stroke: #000000" points="142.943,272.25 160.201,237.734 125.685,237.734 "/>
    <polygon style="fill: #ffffff" points="22.1361,151.443 56.6523,168.701 56.6523,134.185 "/>
    <polygon style="fill: none; fill-opacity:0; stroke-width: 2; stroke: #000000" points="22.1361,151.443 56.6523,168.701 56.6523,134.185 "/>
    <polygon style="fill: none; fill-opacity:0; stroke-width: 2; stroke: #000000" points="22.1361,151.443 56.6523,168.701 56.6523,134.185 "/>
    <polygon style="fill: #ffffff" points="263.75,151.443 229.234,168.701 229.234,134.185 "/>
    <polygon style="fill: none; fill-opacity:0; stroke-width: 2; stroke: #000000" points="263.75,151.443 229.234,168.701 229.234,134.185 "/>
    <polygon style="fill: none; fill-opacity:0; stroke-width: 2; stroke: #000000" points="263.75,151.443 229.234,168.701 229.234,134.185 "/>
    <polygon style="fill: #ffffff" points="91.1686,82.4105 73.9105,99.6686 56.6523,65.1523 "/>
    <polygon style="fill: none; fill-opacity:0; stroke-width: 2; stroke: #000000" points="91.1686,82.4105 73.9105,99.6686 56.6523,65.1523 "/>
    <polygon style="fill: none; fill-opacity:0; stroke-width: 2; stroke: #000000" points="91.1686,82.4105 73.9105,99.6686 56.6523,65.1523 "/>
    <polygon style="fill: #ffffff" points="211.976,203.217 194.717,220.476 229.234,237.734 "/>
    <polygon style="fill: none; fill-opacity:0; stroke-width: 2; stroke: #000000" points="211.976,203.217 194.717,220.476 229.234,237.734 "/>
    <polygon style="fill: none; fill-opacity:0; stroke-width: 2; stroke: #000000" points="211.976,203.217 194.717,220.476 229.234,237.734 "/>
    <polygon style="fill: #ffffff" points="211.976,99.6686 194.717,82.4105 229.234,65.1523 "/>
    <polygon style="fill: none; fill-opacity:0; stroke-width: 2; stroke: #000000" points="211.976,99.6686 194.717,82.4105 229.234,65.1523 "/>
    <polygon style="fill: none; fill-opacity:0; stroke-width: 2; stroke: #000000" points="211.976,99.6686 194.717,82.4105 229.234,65.1523 "/>
    <polygon style="fill: #ffffff" points="91.1686,220.476 73.9105,203.217 56.6523,237.734 "/>
    <polygon style="fill: none; fill-opacity:0; stroke-width: 2; stroke: #000000" points="91.1686,220.476 73.9105,203.217 56.6523,237.734 "/>
    <polygon style="fill: none; fill-opacity:0; stroke-width: 2; stroke: #000000" points="91.1686,220.476 73.9105,203.217 56.6523,237.734 "/>
  </g>
</svg>
